<svg width="116" height="26" viewBox="0 0 116 26" fill="none" xmlns="http://www.w3.org/2000/svg">
<path d="M17.2762 0.94973V25.0498H24.4165V6.3055L17.2762 0.94973ZM14.448 3.06418V25.0498H15.9327V1.93677L14.448 3.06418ZM11.62 25.0498H13.1046V4.12113L11.62 5.17791V25.0498ZM8.79185 25.0498H10.2766V6.23541L8.79185 7.36281V25.0498ZM25.7598 11.7315V25.0498H32.9016V17.0869L25.7598 11.7315ZM5.96367 13.8456V25.0498H7.44857V12.7885L5.96367 13.8456ZM3.13567 25.0498H4.62039V14.9028L3.13567 15.9599V25.0498ZM0.307678 25.0498H1.7924V17.0165L0.307678 18.1441V25.0498Z" fill="#EB0029"/>
<path d="M51.2826 14.3388C49.1636 14.3388 47.8201 13.1409 47.8201 10.8155V6.30549H49.5859V10.8155C49.5859 12.0836 50.2231 12.7885 51.3541 12.7885C52.4136 12.7885 53.0507 12.0838 53.0507 10.8155V6.30549H54.8189V10.745C54.8189 13.2114 53.4039 14.3388 51.2826 14.3388V14.3388ZM60.0493 14.3388C58.8491 14.3388 57.6465 13.9161 56.7277 13.0706L57.718 11.8726C58.4244 12.4362 59.2022 12.7885 60.121 12.7885C60.8273 12.7885 61.2518 12.5067 61.2518 12.0838V12.0133C61.2518 11.5906 60.9704 11.3791 59.6269 11.0268C58.0712 10.6041 57.0094 10.1108 57.0094 8.56066C57.0094 7.08063 58.1402 6.16476 59.7678 6.16476C60.9704 6.16476 61.9583 6.51702 62.7362 7.15108L61.8174 8.49002C61.1828 7.99668 60.474 7.71488 59.7678 7.71488C59.1307 7.71488 58.7775 7.99668 58.7775 8.41939C58.7775 8.91273 59.1307 9.12427 60.474 9.47653C62.1016 9.89924 63.0202 10.4632 63.0202 11.8726C63.0202 13.493 61.8174 14.3388 60.0493 14.3388V14.3388ZM70.3719 14.2685V11.0268H67.1195V14.2687H65.3537V6.30585H67.1195V9.40626H70.3719V6.30549H72.14V14.2683L70.3719 14.2685ZM100.774 14.2685L97.0279 9.26535V14.2685H95.3313V6.30567H96.9563L100.705 11.3791V6.30549H102.402V14.2683L100.774 14.2685ZM66.4848 25.0497L64.0103 21.6673L63.0917 22.6539V25.0497H61.3235V17.0869H63.0917V20.6102L66.344 17.0869H68.463L65.2107 20.4695L68.6061 25.0497H66.4848ZM70.5841 25.0497V17.0869H76.5234V18.6372H72.2808V20.2581H76.0295V21.8081H72.2808V23.4994H76.5951V25.0497H70.5841ZM87.5523 25.0497H89.2491V17.0871H87.5523V25.0497ZM91.8665 25.0497V17.0869H97.8057V18.6372H93.6346V20.2581H97.3093V21.8081H93.6346V23.4994H97.8749V25.0497H91.8665ZM100.493 25.0497V17.0869H102.258V23.4994H106.219V25.0497H100.493ZM111.45 25.0497H108.338V17.0869H111.45C113.996 17.0869 115.693 18.8487 115.693 21.0331V21.1036C115.693 23.3585 113.996 25.0497 111.45 25.0497V25.0497ZM113.855 21.1036C113.855 19.6942 112.865 18.7077 111.45 18.7077H110.106V23.4994H111.45C112.865 23.4994 113.855 22.5129 113.855 21.1036ZM42.6589 12.7885C41.1722 12.7885 40.1844 11.6612 40.1844 10.3221V10.2517C40.1844 8.91273 41.103 7.78533 42.5157 7.78533C43.2935 7.71488 44.0024 8.06732 44.4963 8.63093L45.6273 7.29199C44.8494 6.58747 43.7899 6.09413 42.5157 6.16476C40.0412 6.16476 38.2756 8.06732 38.3446 10.3221C38.4163 12.6476 40.1844 14.4092 42.6589 14.3388C43.9307 14.3388 45.0617 13.7752 45.768 12.9294L44.5678 11.802C44.1431 12.3658 43.4368 12.7178 42.6589 12.7883V12.7885ZM81.0477 6.30549H82.9565V14.2683H81.2601V9.054L78.9979 12.4364H78.9287L76.6643 9.054V14.2687H75.0392V6.30585H76.8766L78.9979 9.61779L81.0477 6.30549ZM88.261 6.30549L84.8656 14.2683H86.7053L87.4116 12.4362H90.8047L91.5133 14.2685H93.3507L89.9576 6.30567L88.261 6.30549ZM88.0487 10.8859L89.1082 8.34912L90.1701 10.8859H88.0487ZM54.3225 17.0867L50.9294 25.0497H52.6976L53.4754 23.2881H56.7993L57.5748 25.0497H59.3429L55.9499 17.0869L54.3225 17.0867ZM54.041 21.7378L55.1003 19.1306L56.1623 21.7378H54.041ZM80.8376 18.7077V20.3989H84.584V22.0196H80.8376V25.0497H79.0694V17.0869H85.1494V18.7077H80.8376ZM49.0205 17.0867L47.183 22.6539L45.3458 17.0869H43.6467L41.8095 22.6539L39.972 17.0869H38.0631L40.96 25.0497H42.7281L44.4963 19.6237L46.3334 25.0497H48.0302L50.9294 17.0869L49.0205 17.0867ZM113.571 12.2951L114.49 11.2384L113.43 10.1108L112.581 11.0268L111.591 9.82896C112.228 9.47653 112.652 8.77183 112.652 8.06732C112.581 6.93991 111.734 6.16476 110.603 6.16476C110.037 6.16476 109.541 6.37612 109.188 6.72838C108.835 7.08063 108.622 7.57379 108.622 8.13777C108.694 8.77183 109.047 9.26535 109.329 9.61761C108.41 9.96987 107.704 10.9565 107.773 11.9431C107.844 13.2816 108.975 14.4092 110.39 14.4092C111.168 14.4092 112.015 13.9865 112.581 13.3524L113.29 14.2683H115.339L113.571 12.2951ZM111.662 12.2247C111.237 12.7178 110.815 12.9294 110.391 12.9294C109.825 12.9294 109.329 12.5067 109.329 11.8726C109.259 11.52 109.541 11.0268 110.319 10.6744L111.662 12.2247ZM110.672 8.91273C110.46 8.70138 110.178 8.41957 110.107 8.13777C110.107 7.85596 110.247 7.57379 110.672 7.50352C111.025 7.50352 111.237 7.78533 111.237 8.13759C111.237 8.48984 110.884 8.77165 110.672 8.91273Z" fill="#717271"/>
</svg>
