<svg width="98" height="68" viewBox="0 0 98 68" fill="none" xmlns="http://www.w3.org/2000/svg">
<path d="M58.3625 24.702C58.3625 25.9258 58.0517 27.3451 57.1532 28.6016H59.6929V8.98894H51.5749V17.0009C55.9649 18.362 58.3625 21.1754 58.3625 24.702Z" fill="#213E99"/>
<path d="M44.3294 16.3029C46.1595 16.3029 47.8653 16.7316 49.1691 17.0763C46.4077 16.5899 42.1255 17.2934 39.9143 19.0376V28.6015H48.0356V17.7205C49.4291 17.9722 50.7551 18.5103 51.93 19.3007V28.6015H53.6947C52.0366 30.476 48.9297 31.6171 46.2527 31.1973V31.5905C53.9696 32.1996 57.2395 28.5365 57.2395 24.4181C57.2395 19.5663 52.6897 16.7283 48.0356 16.1519V8.98885H39.9143V16.2318C34.6565 17.2858 29.5092 20.4079 29.5092 25.5843C29.5092 33.5502 40.6368 38.4847 50.3304 38.4847C65.0504 38.4847 76.3763 31.3729 76.3763 21.3819C76.3763 9.2932 60.0214 0.666517 47.1767 0.666517C32.457 0.666517 21.6187 10.0177 21.6187 20.0087C21.6187 25.1794 24.525 29.515 28.1864 32.5366L28.4629 32.3506C25.564 29.9412 22.9475 26.1865 22.9475 21.0259C23.7129 10.0944 37.1865 3.93644 49.1776 3.93644C57.6557 3.93644 72.89 5.89653 72.89 20.0753C72.89 27.4693 64.9879 37.0865 48.388 37.0865C39.8885 37.0865 33.2869 32.5366 33.2869 25.9911C33.2873 20.3292 37.7217 16.3029 44.3294 16.3029ZM12.8823 66.9372V65.8195H15.7292V56.1607H8.12654V65.8195H11.0461V66.9372H0.562653V65.8195H3.2267V46.1479H0.562653V45.0302H11.0461V46.1479H8.12654V54.8658H15.7292V46.1479H12.8823V45.0302H23.2604V46.1479H20.5923V65.8195H23.2604V66.9372H12.8823ZM27.2799 45.0302H32.0368V47.6261H27.2799V45.0302ZM24.9399 66.9372V65.8195H27.497V52.3471H24.9399V51.2298H32.2168V65.8195H34.5967V66.9372H24.9399ZM35.6212 66.9372V65.8195H38.2509V43.2651H35.6212V42.1506H43.0062V65.8195H45.4911V66.9372H35.6212ZM52.8935 66.9372C50.3005 66.9372 48.897 65.604 48.897 63.549V52.3471H46.3367V51.2294H48.897V44.9975C50.3392 44.9975 51.8497 45.0302 53.3278 44.9975V51.2294H57.0026V52.3471H53.3278V65.8195H57.0765V66.9372H52.8935V66.9372ZM75.3737 58.721C74.9777 52.7758 70.008 50.724 66.5815 50.724C62.7295 50.724 57.5411 53.1366 57.5411 58.9725C57.5411 63.1914 60.6394 67.3332 66.6913 67.3332C72.1312 67.3332 74.369 63.6939 74.907 62.2158C75.3381 61.1364 75.4475 59.8742 75.3737 58.721ZM66.5815 66.4318C64.9257 66.4318 63.9178 65.604 63.4476 64.7022C63.161 64.1613 62.765 63.3718 62.765 58.9019C62.765 55.5875 62.8361 51.7679 66.546 51.7679C68.0241 51.7679 69.139 52.3802 69.7537 53.7518C69.9693 54.2543 70.2236 54.7597 70.2562 58.7566C70.2918 62.4346 70.2918 66.4318 66.5815 66.4318V66.4318ZM88.0715 66.9372V65.8195H90.162V56.5603C90.162 54.4699 90.162 52.4181 87.8559 52.4181C86.5578 52.4181 84.4326 53.713 83.9269 55.8414C83.7464 56.4889 83.782 57.1751 83.782 58.9015V65.8195H86.1594V66.9372H76.5067V65.8195H79.0638V52.3471H76.5067V51.2294H83.782V53.6065C84.5747 52.5986 85.225 51.874 86.7742 51.2649C87.6755 50.8858 88.6433 50.6899 89.6211 50.6885C89.9081 50.6885 90.7715 50.6885 91.7794 50.9751C94.8067 51.874 94.9516 54.1829 94.9516 55.8414V65.8195H97.4372V66.9372H88.0715" fill="#213E99"/>
</svg>
