<svg width="116" height="24" viewBox="0 0 116 24" fill="none" xmlns="http://www.w3.org/2000/svg">
<path d="M112.724 7.57795C112.617 7.57795 112.532 7.48841 112.532 7.38456V6.08648H112.161C112.071 6.08648 111.993 6.01003 111.993 5.91763C111.993 5.82237 112.071 5.74755 112.161 5.74755H113.285C113.374 5.74755 113.452 5.82237 113.452 5.91763C113.452 6.01003 113.374 6.08648 113.285 6.08648H112.913V7.38456C112.913 7.48841 112.828 7.57795 112.724 7.57795H112.724ZM115.5 7.57795C115.397 7.57795 115.311 7.48841 115.311 7.38456V6.25521L114.828 7.50713C114.812 7.54802 114.772 7.57786 114.726 7.57786C114.681 7.57786 114.641 7.54925 114.625 7.50713L114.142 6.25526V7.38456C114.142 7.48841 114.06 7.57795 113.956 7.57795C113.849 7.57795 113.762 7.48841 113.762 7.38456V6.04323C113.762 5.86865 113.902 5.7276 114.072 5.7276C114.207 5.7276 114.318 5.81264 114.364 5.93243L114.726 6.87715L115.092 5.93243C115.134 5.81264 115.249 5.7276 115.381 5.7276C115.554 5.7276 115.692 5.86906 115.692 6.04323V7.38465C115.692 7.48849 115.607 7.57803 115.5 7.57803L115.5 7.57795ZM13.955 5.17648C13.955 4.52744 14.1569 3.92599 14.4988 3.42695C13.4704 3.72991 12.7146 4.67025 12.7146 5.79665V7.78131L13.955 7.84345V5.17648ZM12.7144 18.8238C12.7144 19.9502 13.4701 20.8906 14.4999 21.1935C14.1567 20.6944 13.9548 20.093 13.9548 19.4439V15.7214H12.7143L12.7144 18.8238ZM15.816 15.7221H14.5756V19.4447C14.5756 20.5711 15.3314 21.5115 16.3598 21.8144C16.0179 21.3153 15.816 20.7139 15.816 20.0649V15.7221ZM15.816 4.55602C15.816 3.90698 16.0179 3.30553 16.3598 2.80649C15.3314 3.10945 14.5756 4.04979 14.5756 5.17619V7.87477L15.816 7.93691V4.55602ZM1.82931 3.76147C0.922088 4.30225 0.307678 5.28446 0.307678 6.41667V18.2032C0.307678 19.3369 0.922088 20.3177 1.82931 20.8585C1.64339 20.41 1.54781 19.9292 1.54807 19.4436V5.17632C1.54807 4.67589 1.64905 4.19844 1.82935 3.76143L1.82931 3.76147ZM3.40929 3.9358C3.40929 3.43538 3.51027 2.95793 3.69057 2.52092C2.78335 3.06182 2.1689 4.04255 2.1689 5.17619V19.445C2.1689 20.7777 3.0141 21.9042 4.19533 22.3426C3.70496 21.7123 3.40929 20.9233 3.40929 20.0651V3.9358Z" fill="#EE2841"/>
<path d="M18.9177 2.07464C17.5475 2.07464 16.4369 3.18522 16.4369 4.55542V8.58809L10.2335 8.27818V3.93537C10.2335 2.22338 8.84461 0.834412 7.13115 0.834412C5.41769 0.834412 4.03015 2.22338 4.03015 3.93537V20.0648C4.03015 21.7782 5.41769 23.1657 7.13115 23.1657C8.84461 23.1657 10.2335 21.7782 10.2335 20.0648V15.1018H16.4369V20.0648C16.4369 21.435 17.5475 22.5455 18.9177 22.5455C20.2879 22.5455 21.3984 21.435 21.3984 20.0648V4.55558C21.3984 3.18538 20.2879 2.0748 18.9177 2.0748V2.07464ZM40.3365 17.1823V12.5885H33.6356V17.1823C33.6356 17.6726 33.236 18.0895 32.7457 18.0895C32.238 18.0895 31.8197 17.6726 31.8197 17.1823V6.70389C31.8197 6.21352 32.238 5.79667 32.7284 5.79667C33.236 5.79667 33.6356 6.21352 33.6356 6.70389V10.9717H40.3365V6.70389C40.3365 6.21352 40.7361 5.79667 41.2452 5.79667C41.7529 5.79667 42.1524 6.21352 42.1524 6.70389V17.1823C42.1524 17.6726 41.7529 18.0895 41.2452 18.0895C40.7361 18.0895 40.3365 17.6726 40.3365 17.1823ZM43.4357 13.6046C43.4357 11.0806 45.1434 9.01087 47.8665 9.01087C50.6083 9.01087 52.2973 11.0806 52.2973 13.6046C52.2973 16.1474 50.6083 18.2171 47.8665 18.2171C45.1434 18.2171 43.4357 16.1474 43.4357 13.6046V13.6046ZM50.591 13.6046C50.591 11.9517 49.6275 10.4632 47.8665 10.4632C46.1227 10.4632 45.1434 11.9517 45.1434 13.6046C45.1434 15.2748 46.1227 16.7647 47.8665 16.7647C49.6275 16.7647 50.591 15.2748 50.591 13.6046V13.6046ZM61.7969 9.01059C64.4306 9.01059 66.0647 11.063 66.0647 13.3693C66.0647 13.8596 65.7185 14.1495 65.1012 14.1495H59.1272C59.2541 15.638 60.3445 16.8741 62.1055 16.8741C62.8498 16.8741 63.6315 16.6374 64.2849 16.1644C64.3758 16.0925 64.5027 16.0749 64.6483 16.0749C65.0118 16.0749 65.3017 16.3648 65.3017 16.7282C65.3017 16.9633 65.1921 17.1451 65.0118 17.2734C64.1392 17.9081 63.1037 18.2167 61.9426 18.2167C59.3277 18.2167 57.4022 16.3648 57.4022 13.6042C57.4022 11.0629 59.2368 9.01046 61.7969 9.01046V9.01059ZM59.1099 12.9696H64.4666C64.4306 11.8071 63.6488 10.3547 61.7969 10.3547C60.0359 10.3547 59.1993 11.7711 59.1099 12.9696V12.9696ZM67.1046 17.2728V6.61272C67.1046 6.15984 67.4681 5.79638 67.9224 5.79638C68.358 5.79638 68.7388 6.15984 68.7388 6.61272V17.2728C68.7388 17.7271 68.358 18.0906 67.9224 18.0906C67.8149 18.091 67.7084 18.0702 67.609 18.0293C67.5095 17.9883 67.4192 17.9281 67.3432 17.8521C67.2672 17.776 67.2069 17.6857 67.166 17.5863C67.125 17.4869 67.1042 17.3803 67.1046 17.2728V17.2728ZM69.7898 16.6554C69.7898 16.256 70.0985 15.9472 70.498 15.9472C70.6437 15.9472 70.7879 16.002 70.8975 16.074C71.5697 16.5644 72.4408 16.9091 73.3668 16.9091C74.6014 16.9091 75.2547 16.4014 75.2547 15.6557C75.2547 14.7846 74.2567 14.4946 73.1302 14.2408C71.6417 13.8945 69.8995 13.4951 69.8995 11.6071C69.8995 10.2096 71.0965 9.01099 73.2398 9.01099C74.4572 9.01099 75.4192 9.37282 76.1634 9.91822C76.3264 10.045 76.4533 10.2269 76.4533 10.4634C76.4533 10.8252 76.1447 11.1341 75.7826 11.1341C75.6557 11.1341 75.51 11.0805 75.4192 11.0073C74.8567 10.5905 74.0937 10.3367 73.2586 10.3367C72.1509 10.3367 71.4601 10.7723 71.4601 11.4804C71.4601 12.2434 72.4048 12.4972 73.4937 12.7511C75.0196 13.0957 76.8355 13.5141 76.8355 15.529C76.8355 17.0362 75.6009 18.2175 73.2946 18.2175C72.0774 18.2175 70.9884 17.9088 70.0985 17.2367C69.9167 17.1099 69.7898 16.892 69.7898 16.6554V16.6554ZM78.9795 15.929C79.5968 15.929 80.1232 16.4382 80.1232 17.0555C80.1232 17.6728 79.5968 18.1992 78.9795 18.1992C78.3621 18.1992 77.853 17.6728 77.853 17.0555C77.853 16.4382 78.3621 15.929 78.9795 15.929ZM88.6079 13.6046C88.6079 11.0806 90.3141 9.01087 93.0386 9.01087C95.7805 9.01087 97.4694 11.0806 97.4694 13.6046C97.4694 16.1474 95.7805 18.2171 93.0386 18.2171C90.3141 18.2171 88.6079 16.1474 88.6079 13.6046V13.6046ZM95.7631 13.6046C95.7631 11.9517 94.7997 10.4632 93.0386 10.4632C91.2949 10.4632 90.3141 11.9517 90.3141 13.6046C90.3141 15.2748 91.2949 16.7647 93.0386 16.7647C94.7997 16.7647 95.7631 15.2748 95.7631 13.6046V13.6046ZM110.991 11.6615V17.2736C110.991 17.7265 110.608 18.0899 110.156 18.0899C109.72 18.0899 109.357 17.7265 109.357 17.2736V12.1519C109.357 11.1351 108.902 10.6447 107.831 10.6447C106.941 10.6447 106.069 11.6457 105.651 12.2817V17.2736C105.652 17.3809 105.631 17.4873 105.59 17.5865C105.549 17.6858 105.489 17.776 105.413 17.8519C105.337 17.9278 105.247 17.9879 105.148 18.0287C105.049 18.0696 104.942 18.0904 104.835 18.0899C104.399 18.0899 104.017 17.7265 104.017 17.2736V12.1519C104.017 11.1351 103.582 10.6447 102.474 10.6447C101.62 10.6447 100.768 11.7063 100.331 12.3409V17.2736C100.331 17.7264 99.9497 18.0899 99.5142 18.0899C99.0599 18.0899 98.6964 17.7264 98.6964 17.2736V9.95526C98.6964 9.50095 99.0599 9.13749 99.4954 9.13749C99.9497 9.13749 100.331 9.50095 100.331 9.95526V10.463C100.694 9.91777 101.856 9.01054 103.163 9.01054C104.49 9.01054 105.27 9.69998 105.543 10.6447C106.051 9.82692 107.238 9.01054 108.527 9.01054C110.144 9.01054 110.991 9.90047 110.991 11.6615" fill="#EE2841"/>
<path d="M85.0212 9.01037C86.2746 9.01037 87.1457 9.40981 87.8178 10.0272C87.9621 10.1539 88.0717 10.3719 88.0717 10.5724C88.0717 10.9892 87.7443 11.3166 87.3462 11.3166C87.1457 11.3166 86.9828 11.243 86.8544 11.1347C86.3467 10.663 85.7842 10.4626 85.0933 10.4626C83.3684 10.4626 82.2606 11.7881 82.2606 13.6039C82.2606 15.4198 83.3698 16.7063 85.0933 16.764C86.2573 16.8049 87.4299 15.9578 88.3717 14.4708C88.4885 14.286 88.6601 13.9429 88.8015 13.764C89.0683 13.4267 89.2587 13.5882 89.4159 13.7518C89.7044 14.0531 89.7015 14.7686 89.514 15.1206C88.9847 16.1085 88.539 16.5686 88.0328 17.0633C87.3275 17.747 86.2746 18.2157 85.0213 18.2157C82.3702 18.2157 80.5544 16.2369 80.5544 13.6032C80.5544 10.971 82.3702 9.00947 85.0212 9.00947V9.01037ZM58.5694 16.6543C58.5694 16.963 57.6853 17.6538 57.0492 17.9625C56.6872 18.1383 56.3223 18.2164 55.7958 18.2164C54.4155 18.2164 53.7074 17.4361 53.7074 16.0558V10.663H52.8723C52.4915 10.663 52.1454 10.3355 52.1454 9.93607C52.1454 9.55544 52.4915 9.22796 52.8723 9.22796H53.7074V7.55771C53.7069 7.45019 53.7278 7.34365 53.7687 7.24424C53.8097 7.14482 53.8699 7.05449 53.9459 6.97847C54.0219 6.90244 54.1123 6.84222 54.2117 6.80128C54.3111 6.76034 54.4176 6.73949 54.5252 6.73994C54.9607 6.73994 55.3415 7.1034 55.3415 7.55771V9.22792H56.4867C56.8848 9.22792 57.2122 9.5554 57.2122 9.93607C57.2122 10.3355 56.8848 10.663 56.4867 10.663H55.3415V15.6924C55.3415 16.3098 55.6328 16.764 56.1954 16.764C57.1949 16.764 57.9809 15.2121 58.4237 15.2121C58.8405 15.2121 58.5694 16.2549 58.5694 16.6544" fill="#EE2841"/>
</svg>
