<svg width="116" height="28" viewBox="0 0 116 28" fill="none" xmlns="http://www.w3.org/2000/svg">
<path d="M59.7443 15.7734L55.3667 4.7666L51.0144 15.7003C53.9242 15.6051 56.8366 15.6295 59.7443 15.7734V15.7734ZM96.0757 26.933C86.6943 22.8535 76.144 19.8323 63.747 18.8124L67.5219 27.9801H64.6L60.8739 18.6156C57.2167 18.408 53.5515 18.3789 49.8914 18.5284L46.1297 27.9801H43.206L47.0333 18.6793C33.8837 19.5417 22.6847 22.6576 12.8477 26.9302V26.3528C19.4132 22.6886 25.9055 19.9532 32.9144 18.1666V12.5394L25.0216 0.421789H27.9537L34.2174 10.4903L40.4838 0.422762H43.4131L35.5213 12.5394L35.5194 17.5498C39.5314 16.679 43.7234 16.1034 48.207 15.8306L54.7124 0.0206069H56.0163L62.5734 15.9562C66.9744 16.3077 71.0999 16.9555 75.0547 17.9032V2.53H68.6055V0.421789H84.1718V2.53092H77.7253V18.5959C84.0846 20.3722 90.052 22.9557 96.0757 26.3584V26.933ZM106.505 0.421789H90.9407V2.53092H97.3899V21.5318H100.058V2.53092H106.505V0.421789ZM17.1541 21.5318L14.4853 21.5337V11.1174H2.97606V21.5318H0.307312V0.421789H2.97606V9.01111H14.4853V0.421789H17.1541V21.5318ZM113.546 2.066C113.418 1.99101 113.212 1.95351 112.929 1.95351H112.494V3.01088H112.954C113.173 3.01088 113.332 2.98744 113.442 2.94526C113.534 2.91193 113.613 2.84968 113.668 2.76778C113.722 2.68588 113.748 2.5887 113.743 2.49064C113.743 2.27972 113.675 2.13911 113.546 2.066V2.066ZM112.996 1.60949C113.354 1.60949 113.618 1.64418 113.788 1.71167C114.088 1.83728 114.236 2.08471 114.236 2.44841C114.236 2.7062 114.142 2.89836 113.955 3.0221C113.825 3.09605 113.682 3.14296 113.534 3.15992C113.765 3.19554 113.928 3.2902 114.035 3.44393C114.13 3.57605 114.184 3.73321 114.19 3.89575V4.1067C114.19 4.17512 114.193 4.24731 114.197 4.32136C114.197 4.37366 114.206 4.42561 114.223 4.47509L114.241 4.51068H113.765L113.757 4.48259C113.754 4.47228 113.754 4.45911 113.751 4.44786L113.739 4.35414V4.12357C113.739 3.78986 113.645 3.56861 113.464 3.46081C113.354 3.39988 113.168 3.36709 112.895 3.36709H112.494V4.51068H111.98V1.60949H112.996ZM111.442 1.45947C111.228 1.66878 111.059 1.9197 110.945 2.19679C110.831 2.47387 110.774 2.77128 110.78 3.07084C110.78 3.70358 110.998 4.24257 111.439 4.6897C111.646 4.90628 111.896 5.07759 112.172 5.19278C112.449 5.30798 112.746 5.3646 113.046 5.35905C113.676 5.35905 114.212 5.13778 114.657 4.6897C115.097 4.24351 115.317 3.70358 115.317 3.07084C115.322 2.77135 115.266 2.47405 115.152 2.1969C115.039 1.91976 114.87 1.66857 114.657 1.45856C114.447 1.24407 114.197 1.07442 113.92 0.959999C113.643 0.845573 113.346 0.788742 113.046 0.792992C112.748 0.788664 112.452 0.845481 112.176 0.959942C111.9 1.0744 111.651 1.2441 111.443 1.45856L111.442 1.45947ZM114.915 4.94093C114.674 5.19246 114.384 5.39142 114.062 5.52531C113.74 5.6592 113.395 5.72514 113.046 5.71898C112.315 5.71898 111.692 5.46118 111.176 4.94093C110.929 4.69669 110.733 4.40481 110.602 4.08289C110.47 3.76098 110.405 3.41572 110.411 3.06804C110.411 2.34156 110.669 1.71821 111.185 1.20264C111.699 0.688953 112.32 0.431172 113.046 0.431172C113.779 0.431172 114.402 0.688931 114.915 1.20356C115.166 1.44407 115.365 1.73388 115.498 2.05473C115.632 2.37558 115.698 2.72055 115.691 3.06804C115.691 3.79733 115.434 4.42161 114.915 4.94093Z" fill="#4B77A9"/>
</svg>
