<svg width="116" height="54" viewBox="0 0 116 54" fill="none" xmlns="http://www.w3.org/2000/svg">
<path d="M103.35 51.5182C103.35 51.5182 104.096 52.2636 105.131 52.2636C105.794 52.2636 106.332 51.8909 106.332 51.2282C106.332 49.6959 102.936 50.0272 102.936 47.8736C102.936 46.7967 103.889 45.927 105.214 45.927C106.539 45.927 107.202 46.6311 107.202 46.6311L106.746 47.4594C106.746 47.4594 106.084 46.8382 105.214 46.8382C104.468 46.8382 103.93 47.2937 103.93 47.8736C103.93 49.3231 107.326 48.9504 107.326 51.2282C107.326 52.3051 106.498 53.2162 105.09 53.2162C103.599 53.2162 102.77 52.3051 102.77 52.3051L103.35 51.5182Z" fill="#0E7755"/>
<path d="M7.6383 17.9716H0.307701V38.9694H2.70982V30.8934H7.6383C11.5728 30.8934 14.182 28.2842 14.182 24.3911C14.182 20.5394 11.5314 17.9716 7.6383 17.9716ZM2.70982 20.1667H7.38981C10.0818 20.1667 11.7385 21.7819 11.7385 24.3911C11.7385 27.0417 10.0818 28.6983 7.34839 28.6983H2.70982V20.1667Z" fill="#0E7755"/>
<path d="M25.3229 17.9716L17.6196 38.9694H20.1459L22.5066 32.3843H30.5413L32.902 38.9694H35.4284L27.7665 17.9716H25.3229ZM29.6716 30.3964L23.0865 30.1893L25.9856 23.0244C26.2341 22.4031 26.524 21.492 26.6897 20.8707C26.8139 21.4506 27.0624 22.4031 27.2695 23.0244L29.6716 30.3964Z" fill="#0E7755"/>
<path d="M50.9593 29.7335C53.2786 28.988 54.7696 26.793 54.7696 24.0596C54.7696 21.5332 53.5685 19.4624 51.5392 18.5927C50.7108 18.2199 49.7583 18.0128 47.6047 18.0128H41.3509V39.0107H43.753V30.3134H48.6815L53.3615 39.0107H56.0949L51.4563 30.4376C51.2078 30.1063 51.0836 29.8578 50.9593 29.7335V29.7335ZM52.3675 24.101C52.3675 26.5859 50.8765 28.1183 48.4744 28.1183H43.753V20.1665H47.7289C49.3441 20.1665 50.0068 20.3321 50.5866 20.6635C51.7462 21.2433 52.3675 22.4858 52.3675 24.101" fill="#0E7755"/>
<path d="M73.5724 17.9716L68.0227 26.9589H64.7922V17.9716H62.3901V38.9694H64.7922V29.1125H68.0227L73.9037 38.9694H76.72L70.0106 27.9528L76.3059 17.9716H73.5724Z" fill="#0E7755"/>
<path d="M1.30168 49.1165V46.0518H0.307701V53.0924H1.30168V49.9863H4.94627V53.0924H5.94025V46.0518H4.94627V49.1165H1.30168Z" fill="#0E7755"/>
<path d="M11.9869 45.927C14.0163 45.927 15.5901 47.5008 15.5901 49.5302C15.5901 51.601 14.0163 53.2162 11.9869 53.2162C9.95757 53.2162 8.38377 51.601 8.38377 49.5302C8.38377 47.5008 9.95757 45.927 11.9869 45.927ZM11.9869 52.3051C13.4365 52.3051 14.5961 51.104 14.5961 49.5302C14.5961 47.9978 13.4365 46.8382 11.9869 46.8382C10.5374 46.8382 9.37775 47.9978 9.37775 49.5302C9.37775 51.104 10.5788 52.3051 11.9869 52.3051Z" fill="#0E7755"/>
<path d="M19.4419 46.8801V53.0924H20.4359V46.8801H22.8794V46.0518H17.0397V46.8801H19.4419Z" fill="#0E7755"/>
<path d="M29.1331 53.0924V52.2227H25.8612V49.9448H28.3876V49.1165H25.8612V46.8801H28.9674V46.0518H24.8672V53.0924H29.1331Z" fill="#0E7755"/>
<path d="M37.8718 51.5182C37.8718 51.5182 38.6173 52.2636 39.6527 52.2636C40.3154 52.2636 40.8538 51.8909 40.8538 51.2282C40.8538 49.6959 37.4577 50.0272 37.4577 47.8736C37.4577 46.7967 38.4103 45.927 39.7356 45.927C41.0609 45.927 41.7235 46.6311 41.7235 46.6311L41.268 47.4594C41.268 47.4594 40.6053 46.8382 39.7356 46.8382C38.9901 46.8382 38.4517 47.2937 38.4517 47.8736C38.4517 49.3231 41.8478 48.9504 41.8478 51.2282C41.8478 52.3051 41.0195 53.2162 39.6113 53.2162C38.1203 53.2162 37.292 52.3051 37.292 52.3051L37.8718 51.5182Z" fill="#0E7755"/>
<path d="M49.3026 49.282C49.3026 49.282 48.3915 48.9507 48.3915 47.7082C48.3915 46.5486 49.3026 45.8859 50.5451 45.8859C50.9179 45.8859 51.4149 46.0102 51.4149 46.0102L51.1664 46.7971C51.1664 46.7971 50.8764 46.7556 50.628 46.7556C49.9239 46.7556 49.3855 47.1284 49.3855 47.8325C49.3855 48.288 49.5925 48.9507 50.6694 48.9507H51.9947V47.9981H52.9473V48.9507H53.8998V49.8204H52.9473V50.773C52.9473 52.3468 52.0361 53.2579 50.5037 53.2579C49.0541 53.2579 48.0601 52.3468 48.0601 51.1457C48.0601 50.3174 48.5157 49.5719 49.3026 49.282ZM50.5037 52.3054C51.4149 52.3054 51.9533 51.8084 51.9533 50.6901V49.779H50.5865C49.5925 49.779 49.0127 50.2346 49.0127 51.0215C49.0541 51.7255 49.634 52.3054 50.5037 52.3054" fill="#0E7755"/>
<path d="M59.2839 46.0518H61.4375C62.183 46.0518 62.4729 46.0932 62.7628 46.2174C63.4669 46.4659 63.9639 47.2114 63.9639 48.1226C63.9639 49.0337 63.4669 49.7792 62.68 50.0277C62.68 50.0277 62.7628 50.1105 62.8871 50.359L64.378 53.0924H63.2598L61.7688 50.2762H60.2779V53.0924H59.2839V46.0518ZM61.686 49.4064C62.4729 49.4064 62.9285 48.9094 62.9285 48.1226C62.9285 47.5842 62.7214 47.2528 62.3487 47.0458C62.1416 46.9629 61.9345 46.8801 61.3961 46.8801H60.2779V49.4064H61.686Z" fill="#0E7755"/>
<path d="M70.9218 53.0924V52.2227H67.6499V49.9448H70.1763V49.1165H67.6499V46.8801H70.7562V46.0518H66.6559V53.0924H70.9218Z" fill="#0E7755"/>
<path d="M94.7358 35.5731V31.2659L97.9248 32.8397V37.1469L94.7358 35.5731ZM98.9188 32.8397L102.108 31.2659V35.5731L98.9188 37.1469V32.8397ZM90.5528 33.4609V29.1537L93.7419 30.7275V35.0347L90.5528 33.4609ZM103.102 30.7689L106.291 29.1951V33.5023L103.102 35.0761V30.7689ZM86.3699 31.3901V27.0829L89.5589 28.6567V32.9639L86.3699 31.3901ZM107.285 28.6567L110.474 27.0829V31.3901L107.285 32.9639V28.6567ZM94.7358 30.1477V25.8404L97.9248 27.4142V31.7215L94.7358 30.1477ZM98.9188 27.4556L102.108 25.8818V30.1891L98.9188 31.7629V27.4556ZM82.1869 29.2779V25.0121L85.3759 26.5859V30.8931L82.1869 29.2779ZM111.509 26.5859L114.698 25.0121V29.3193L111.509 30.8931V26.5859ZM90.5528 28.0769V23.7696L93.7419 25.3434V29.6507L90.5528 28.0769ZM103.102 25.3434L106.291 23.7696V28.0769L103.102 29.6507V25.3434ZM86.3699 25.9647V21.6988L89.5589 23.2726V27.5799L86.3699 25.9647ZM107.285 23.2726L110.474 21.6988V26.0061L107.285 27.5799V23.2726ZM94.7358 24.7636V20.4563L97.9248 22.0301V26.3374L94.7358 24.7636ZM98.9188 22.0301L102.108 20.4563V24.7636L98.9188 26.3374V22.0301ZM82.1869 23.8939V19.5866L85.3759 21.1604V25.4677L82.1869 23.8939ZM111.509 21.2018L114.698 19.628V23.9353L111.509 25.5091V21.2018ZM90.5528 22.6514V18.3441L93.7419 19.9179V24.2252L90.5528 22.6514ZM103.102 19.9594L106.291 18.3855V22.6928L103.102 24.2666V19.9594ZM86.3699 20.5806V16.2733L89.5589 17.8471V22.1544L86.3699 20.5806ZM107.285 17.8471L110.474 16.2733V20.5806L107.285 22.1544V17.8471ZM94.7358 19.3381V15.0309L97.9248 16.6047V20.9119L94.7358 19.3381ZM98.9188 16.6461L102.108 15.0723V19.3795L98.9188 20.9533V16.6461ZM90.5528 17.2673V12.9601L93.7419 14.5339V18.8411L90.5528 17.2673ZM103.102 14.5339L106.291 12.9601V17.2673L103.102 18.8411V14.5339ZM86.3699 15.1551V10.8479L89.5589 12.4217V16.7289L86.3699 15.1551ZM107.285 12.4631L110.474 10.8893V15.1965L107.285 16.7703V12.4631ZM94.7358 13.9126V9.6468L97.9248 11.2206V15.5279L94.7358 13.9126ZM98.9188 11.2206L102.108 9.6468V13.9541L98.9188 15.5279V11.2206ZM90.5528 11.8418V7.53459L93.7419 9.10839V13.4156L90.5528 11.8418ZM103.102 9.14981L106.291 7.57601V11.8833L103.102 13.4571V9.14981ZM94.7358 8.52857V4.22132L97.9248 5.79512V10.1024L94.7358 8.52857ZM98.9188 5.83654L102.108 4.26274V8.56999L98.9188 10.1438V5.83654ZM95.3571 3.43442L98.4218 1.90203L101.487 3.43442L98.4218 4.96681L95.3571 3.43442ZM98.4218 0.783802L93.7419 3.10309V8.03158L89.5589 5.96079V11.3863L85.3759 9.31547V20.125L81.1929 18.0542V29.982L97.9663 38.348V43.4422H98.9602V38.2652L115.734 29.8992V17.9714L111.551 20.0422V9.27406L107.368 11.3449V5.96079L103.185 8.03158V3.10309L98.4218 0.783802Z" fill="#0E7755"/>
<path d="M73.4068 51.5182C73.4068 51.5182 74.1523 52.2636 75.1877 52.2636C75.8504 52.2636 76.3888 51.8909 76.3888 51.2282C76.3888 49.6959 72.9926 50.0272 72.9926 47.8736C72.9926 46.7967 73.9452 45.927 75.2705 45.927C76.5959 45.927 77.2585 46.6311 77.2585 46.6311L76.8029 47.4594C76.8029 47.4594 76.1403 46.8382 75.2705 46.8382C74.525 46.8382 73.9866 47.2937 73.9866 47.8736C73.9866 49.3231 77.3828 48.9504 77.3828 51.2282C77.3828 52.3051 76.5544 53.2162 75.1463 53.2162C73.6553 53.2162 72.827 52.3051 72.827 52.3051L73.4068 51.5182Z" fill="#0E7755"/>
<path d="M82.9738 45.927C85.0032 45.927 86.577 47.5008 86.577 49.5302C86.577 51.601 85.0032 53.2162 82.9738 53.2162C80.9444 53.2162 79.3706 51.601 79.3706 49.5302C79.3706 47.5008 80.9444 45.927 82.9738 45.927ZM82.9738 52.3051C84.4234 52.3051 85.5831 51.104 85.5831 49.5302C85.5831 47.9978 84.4234 46.8382 82.9738 46.8382C81.5243 46.8382 80.3646 47.9978 80.3646 49.5302C80.3646 51.104 81.5243 52.3051 82.9738 52.3051Z" fill="#0E7755"/>
<path d="M89.0206 46.0518H91.1742C91.9197 46.0518 92.2096 46.0932 92.4995 46.2174C93.2036 46.4659 93.7006 47.2114 93.7006 48.1226C93.7006 49.0337 93.2036 49.7792 92.4167 50.0277C92.4167 50.0277 92.4995 50.1105 92.6238 50.359L94.1147 53.0924H92.9965L91.5055 50.2762H90.0146V53.0924H89.0206V46.0518ZM91.4227 49.4064C92.2096 49.4064 92.6652 48.9094 92.6652 48.1226C92.6652 47.5842 92.4581 47.2528 92.0854 47.0458C91.8783 46.9629 91.6712 46.8801 91.1328 46.8801H90.0146V49.4064H91.4227Z" fill="#0E7755"/>
</svg>
